<?xml version="1.0" encoding="UTF-8"?>
<svg width="67px" height="16px" viewBox="0 0 67 16" version="1.1" xmlns="http://www.w3.org/2000/svg" xmlns:xlink="http://www.w3.org/1999/xlink">
    <!-- Generator: Sketch 64 (93537) - https://sketch.com -->
    <title>Apple</title>
    <desc>Created with Sketch.</desc>
    <g id="Page-1" stroke="none" stroke-width="1" fill="none" fill-rule="evenodd">
        <g id="Desktop-Login-1920" transform="translate(-338.000000, -657.000000)" fill="#FFFFFF">
            <g id="Logos" transform="translate(230.000000, 653.000000)">
                <path d="M161.672056,9.05095541 C162.370494,9.05095541 163.081154,9.05095541 163.777264,9.03416329 C163.849436,9.34452808 163.888432,9.6612623 163.893671,9.97973364 C163.876792,13.2223509 163.893671,16.4649682 163.876792,19.7266937 C163.130045,19.7434858 162.399595,19.7434858 161.652266,19.7434858 C161.655759,16.179502 161.637716,12.6149392 161.671473,9.05095541 L161.672056,9.05095541 Z M140.770132,9.05095541 L142.977779,9.05095541 C143.045876,11.4493341 142.910263,13.8309207 143.045876,16.2310365 C143.131435,18.0723798 145.627187,18.6294152 146.90009,17.582513 C147.555458,17.015634 147.912244,16.1812391 147.868009,15.3184713 C147.88547,13.224088 147.85113,11.1464968 147.88547,9.05153445 L150.109413,9.05153445 C150.109413,12.6328894 150.126292,16.2136653 150.109413,19.8112334 C149.395842,19.8112334 148.665975,19.7950203 147.956478,19.7272727 L147.956478,17.9901563 C147.408786,19.1273885 146.297688,19.8917197 145.035261,20 L144.067342,20 C143.067993,19.9061957 142.151876,19.4041691 141.53725,18.6149392 C140.975589,17.7788072 140.706691,16.7811233 140.773042,15.7776491 L140.770132,9.05095541 Z M167.513326,9.60799074 C169.138358,8.66589461 171.132981,8.60856977 172.809815,9.45570353 C174.041394,10.1273885 174.860312,11.3595831 175,12.7498552 C174.301562,12.7666474 173.60778,12.7666474 172.912252,12.7666474 C172.736479,12.179502 172.408213,11.6491025 171.96063,11.2292994 C171.216794,10.71685 170.277395,10.5732484 169.41366,10.8407643 C168.343885,11.1783439 167.732752,12.2767805 167.54592,13.3231036 C167.375966,14.6074117 167.409724,16.06022 168.225151,17.1244933 C169.140105,18.2478286 170.776196,18.4701795 171.96063,17.6317313 C172.405303,17.2252461 172.727748,16.7041112 172.891881,16.1262305 C173.590901,16.1262305 174.284101,16.1262305 174.980211,16.1430226 C174.844598,18.2547771 172.90876,19.8257093 170.871067,19.9774175 L169.703511,19.9774175 C168.485901,19.8598726 167.351521,19.3074696 166.511067,18.4232774 C165.552461,17.2316155 165.084508,15.7220614 165.203242,14.2003474 C165.222449,12.4464389 165.968032,10.5709323 167.513326,9.60799074 L167.513326,9.60799074 Z M152.995709,9.64157499 C154.63762,8.67689635 156.661344,8.61320208 158.362041,9.47249566 C159.377104,10.0353214 160.021414,11.0874349 160.059246,12.2431963 L158.022135,12.2431963 C157.895834,11.8158657 157.682228,11.418645 157.394122,11.0775912 C156.752723,10.5865663 155.919254,10.418066 155.136421,10.6213086 C154.490366,10.7735958 153.760498,11.2628836 153.845475,12.0063694 C153.777959,12.597568 154.304116,12.985524 154.796515,13.1540243 C156.018199,13.5935148 157.343486,13.6757383 158.531412,14.1679213 C159.218792,14.4018529 159.782199,14.9009844 160.093585,15.5535611 C160.604027,16.7967574 160.2065,18.2269832 159.126249,19.0330052 C158.395217,19.5552982 157.541376,19.8818761 156.646794,19.9791546 L155.033402,19.9791546 C153.982834,19.8535032 153.003275,19.3850608 152.249544,18.6473654 C151.762965,18.0718008 151.455653,17.3676896 151.36602,16.6207296 C152.09647,16.6207296 152.826337,16.6375217 153.557369,16.6884771 C153.738381,17.3746381 154.245331,17.9293573 154.914667,18.1748697 C155.845918,18.3775333 157.037337,18.4284887 157.766623,17.701795 C158.217697,17.2431963 158.210131,16.507238 157.749162,16.0584829 C157.667677,15.9791546 157.575716,15.9125651 157.475607,15.8604517 C155.845918,15.1001737 153.790764,15.3022583 152.415423,14.0023162 C151.144266,12.8008107 151.535391,10.537348 152.995127,9.64215402 L152.995709,9.64157499 Z M111.667382,7.85118703 C112.822133,7.64852345 113.840688,8.34105385 114.944221,8.5269253 C115.979655,8.30689056 116.965035,7.69889983 118.051688,7.80023162 C119.271044,7.8089172 120.420557,8.36826867 121.175452,9.32078749 C119.93165,10.0428489 119.237869,11.4302258 119.409568,12.8529241 C119.494545,14.1708164 120.515428,15.1690793 121.617214,15.7579618 C121.02296,17.2449334 120.207533,18.7822814 118.849653,19.7110596 C117.491191,20.5720903 116.114104,19.015634 114.689873,19.37348 C113.976302,19.5083961 113.331411,19.8118124 112.618422,19.9982629 L112.057925,19.9982629 C111.590554,19.8193399 111.163342,19.5489288 110.801901,19.2044007 C109.239146,17.5732484 108.25493,15.4788651 108,13.2403011 L108,12.0579039 C108.135031,10.0642733 109.612228,8.12159815 111.6668,7.85118703 L111.667382,7.85118703 Z M123.773642,5.06427331 L126.405007,5.06427331 C128.052157,8.98320787 129.648088,12.9351477 131.26148,16.8888246 C132.925509,12.96989 134.487682,9.00057904 136.134832,5.08106543 L138.766197,5.08106543 C138.783076,9.97973364 138.766197,14.8616097 138.766197,19.7602779 C138.067759,19.7602779 137.373977,19.7602779 136.694746,19.7770701 C136.660988,16.1951361 136.728504,12.6149392 136.660988,9.05037638 C136.508496,9.32078749 136.369972,9.6074117 136.236687,9.89461494 C134.898014,13.1887666 133.519763,16.4655472 132.162465,19.7596989 C131.568211,19.7596989 130.973956,19.776491 130.379702,19.7261146 C128.953142,16.1111754 127.40843,12.5639838 125.964991,8.96583671 C125.880015,12.5639838 125.948112,16.1453387 125.931233,19.7423277 C125.218245,19.7596989 124.504674,19.7596989 123.777716,19.7596989 C123.773642,14.8442386 123.756763,9.94441228 123.773642,5.06427331 L123.773642,5.06427331 Z M162.164454,4.96294152 C162.78199,4.63115229 163.553182,4.85987261 163.887268,5.47481181 C164.009495,5.7000579 164.060714,5.95773017 164.032776,6.21250724 C163.998436,6.90735379 163.333756,7.25998842 162.74183,7.41227562 C162.396685,7.32599884 162.080642,7.15112913 161.824548,6.90561668 C161.357758,6.403011 161.388606,5.61899247 161.893228,5.15460336 C161.975294,5.07932831 162.066091,5.01563405 162.165036,4.96467863 L162.164454,4.96294152 Z M117.898614,4 L118.255399,4 C118.323497,5.89171975 116.761324,7.8343949 114.774849,7.80081065 C114.779506,5.95773017 116.083839,4.37058483 117.898614,4 L117.898614,4 Z" id="Apple"></path>
            </g>
        </g>
    </g>
</svg>