<?xml version="1.0" encoding="UTF-8"?>
<svg width="83px" height="16px" viewBox="0 0 83 16" version="1.1" xmlns="http://www.w3.org/2000/svg" xmlns:xlink="http://www.w3.org/1999/xlink">
    <!-- Generator: Sketch 64 (93537) - https://sketch.com -->
    <title>Deezer</title>
    <desc>Created with Sketch.</desc>
    <g id="Page-1" stroke="none" stroke-width="1" fill="none" fill-rule="evenodd">
        <g id="Desktop-Login-1920" transform="translate(-434.000000, -657.000000)" fill="#FFFFFF">
            <g id="Logos" transform="translate(230.000000, 653.000000)">
                <path d="M283.912217,9.17959184 C282.799482,9.12419825 281.770606,9.77142857 281.330486,10.8029155 L281.330486,9.17959184 L278.426038,9.17959184 L278.426038,19.9994169 L281.330486,19.9994169 L281.330486,13.0279883 C281.330486,11.9236152 281.920397,11.3125364 282.82435,11.3125364 C283.633455,11.3784257 284.23956,12.0868805 284.186352,12.903207 L284.186352,13.212828 L287,13.212828 L287,12.3865889 C287,10.528863 285.846202,9.17959184 283.912217,9.17959184 L283.912217,9.17959184 Z M208.299415,14.1755102 L211.860284,14.1755102 L211.860284,12.0746356 L208.299415,12.0746356 L208.299415,14.1755102 Z M208.299415,17.0874636 L211.860284,17.0874636 L211.860284,14.987172 L208.299415,14.987172 L208.299415,17.0874636 Z M212.606928,17.0874636 L216.167797,17.0874636 L216.167797,14.987172 L212.606928,14.987172 L212.606928,17.0874636 Z M216.906343,20 L220.467212,20 L220.467212,17.8997085 L216.906343,17.8997085 L216.906343,20 Z M212.606928,20 L216.167797,20 L216.167797,17.8997085 L212.606928,17.8997085 L212.606928,20 Z M208.299415,20 L211.860284,20 L211.860284,17.8997085 L208.299415,17.8997085 L208.299415,20 Z M204,20 L207.560869,20 L207.560869,17.8997085 L204,17.8997085 L204,20 Z M216.906343,17.0874636 L220.467212,17.0874636 L220.467212,14.987172 L216.906343,14.987172 L216.906343,17.0874636 Z M216.906343,14.1755102 L220.467212,14.1755102 L220.467212,12.0746356 L216.906343,12.0746356 L216.906343,14.1755102 Z M216.906343,11.2635569 L220.467212,11.2635569 L220.467212,9.16268222 L216.906343,9.16268222 L216.906343,11.2635569 Z M272.375395,11.2827988 C273.670309,11.2827988 274.549971,11.9854227 274.549971,13.090379 L274.532621,13.1825073 L269.926104,13.1825073 C270.178263,12.0344023 271.21003,11.2338192 272.375395,11.2827988 L272.375395,11.2827988 Z M272.75768,17.7177843 C271.222175,17.7177843 269.960227,16.780758 269.926683,15.1236152 L277.20573,15.1236152 C277.298844,14.6892128 277.343955,14.245481 277.339328,13.8011662 C277.339328,10.8303207 275.330158,9.15685131 272.364984,9.15685131 C269.541505,9.03265306 267.152941,11.2390671 267.029753,14.0857143 C267.023392,14.2250729 267.022813,14.3650146 267.028597,14.5043732 C267.028597,17.935277 269.427571,19.993586 272.746692,19.993586 C275.253238,19.993586 276.955307,18.9393586 277.702529,16.8390671 L275.247455,15.8600583 C275.006863,17.0274052 273.935191,17.8268222 272.75768,17.7177843 L272.75768,17.7177843 Z M266.638214,11.5731778 L266.638214,9.16326531 L257.30315,9.16326531 L257.30315,11.6734694 L263.005052,11.6734694 L257.120393,17.4897959 L257.120393,20 L266.805934,20 L266.805934,17.3638484 L260.739097,17.3638484 L266.638214,11.5731778 Z M251.650408,11.2827988 C252.945322,11.2827988 253.824984,11.9854227 253.824984,13.090379 L253.808212,13.1825073 L249.201118,13.1825073 C249.452698,12.0344023 250.485043,11.2338192 251.650408,11.2827988 L251.650408,11.2827988 Z M252.032116,17.7177843 C250.497188,17.7177843 249.235818,16.780758 249.201696,15.1236152 L256.480744,15.1236152 C256.573857,14.6892128 256.61839,14.245481 256.614342,13.8011662 C256.614342,10.8303207 254.60575,9.15685131 251.640576,9.15685131 C248.816518,9.03265306 246.427954,11.2390671 246.304767,14.0857143 C246.298405,14.2250729 246.298405,14.3650146 246.30361,14.5043732 C246.30361,17.935277 248.702006,19.993586 252.021705,19.993586 C254.528252,19.993586 256.230321,18.9393586 256.977542,16.8390671 L254.522468,15.8600583 C254.281877,17.0274052 253.210204,17.8268222 252.032116,17.7177843 L252.032116,17.7177843 Z M240.934257,11.2827988 C242.229749,11.2827988 243.109412,11.9854227 243.109412,13.090379 L243.092061,13.1825073 L238.486123,13.1825073 C238.737703,12.0344023 239.76947,11.2338192 240.934257,11.2827988 L240.934257,11.2827988 Z M241.317121,17.7177843 C239.781037,17.7177843 238.520246,16.780758 238.486702,15.1236152 L245.765749,15.1236152 C245.858285,14.6892128 245.902817,14.245481 245.89819,13.8011662 C245.89819,10.8303207 243.890177,9.15685131 240.924425,9.15685131 C238.101524,9.03265306 235.712381,11.2390671 235.589194,14.0857143 C235.583411,14.2250729 235.582832,14.3650146 235.587459,14.5043732 C235.587459,17.935277 237.987012,19.993586 241.306711,19.993586 C243.813257,19.993586 245.514169,18.9393586 246.261391,16.8390671 L243.806317,15.8600583 C243.565726,17.0274052 242.494631,17.8268222 241.317121,17.7177843 L241.317121,17.7177843 Z M232.020228,14.619242 C232.020228,16.535277 230.725892,17.7323615 229.173615,17.7323615 C227.562925,17.7323615 226.326423,16.5358601 226.326423,14.619242 C226.326423,12.6693878 227.5716,11.4478134 229.173615,11.4478134 C230.725892,11.4478134 232.020228,12.6880466 232.020228,14.619242 L232.020228,14.619242 Z M231.931741,10.7947522 C231.27532,9.67346939 230.064266,9.17142857 228.545532,9.17142857 C225.573418,9.16326531 223.432964,11.2122449 223.432964,14.619242 L223.429494,14.619242 C223.429494,17.9749271 225.480305,19.9836735 228.525869,19.9836735 C230.044602,19.9836735 231.322744,19.5568513 232.037578,18.4355685 L232.037578,19.9836735 L234.817682,19.9836735 L234.817682,4 L231.931741,4 L231.931741,10.7947522 Z" id="Deezer"></path>
            </g>
        </g>
    </g>
</svg>