<?xml version="1.0" encoding="UTF-8"?>
<svg width="79px" height="23px" viewBox="0 0 79 23" version="1.1" xmlns="http://www.w3.org/2000/svg" xmlns:xlink="http://www.w3.org/1999/xlink">
    <!-- Generator: Sketch 64 (93537) - https://sketch.com -->
    <title>Spotify</title>
    <desc>Created with Sketch.</desc>
    <g id="Page-1" stroke="none" stroke-width="1" fill="none" fill-rule="evenodd">
        <g id="Desktop-Login-1920" transform="translate(-230.000000, -653.000000)" fill="#FFFFFF">
            <g id="Logos" transform="translate(230.000000, 653.000000)">
                <path d="M77.7712137,9.59277722 L77.4340037,9.59277722 L77.4340037,10.0080594 L77.7712137,10.0080594 C77.938936,10.0080594 78.0401578,9.92859901 78.0401578,9.79983832 C78.0401578,9.67107764 77.937759,9.59161721 77.7706252,9.59161721 L77.7712137,9.59277722 Z M77.9907239,10.1849604 L78.3573589,10.680283 L78.0478083,10.680283 L77.7164833,10.2261406 L77.4340037,10.2261406 L77.4340037,10.680283 L77.1744755,10.680283 L77.1744755,9.36715601 L77.7818067,9.36715601 C78.0995962,9.36715601 78.306748,9.52317685 78.306748,9.78591825 C78.3149869,9.97731927 78.1819861,10.1455202 77.9924894,10.1849604 L77.9907239,10.1849604 Z M77.7029478,8.93041368 C77.0697227,8.93853373 76.5624364,9.45009646 76.5706754,10.0741798 C76.5783259,10.6982631 77.0973821,11.1976458 77.7311958,11.1901057 C78.3603014,11.1825657 78.8652337,10.676223 78.8628879,10.0561997 C78.8611142,9.43153636 78.3455889,8.92751367 77.7111868,8.92924919 C77.7082443,8.92924919 77.7053018,8.92924919 77.7017708,8.92924919 L77.7029478,8.93041368 Z M77.6952973,11.3148064 C76.9932178,11.2979863 76.437086,10.7226232 76.454741,10.0300996 C76.4718075,9.33757586 77.0550102,8.78947293 77.7582667,8.80687303 C78.4468108,8.82311311 78.9970575,9.37701607 79,10.0561997 C78.9982345,10.7527834 78.4244478,11.3153864 77.7182488,11.3142264 C77.7100098,11.3142264 77.7023593,11.3142264 77.6941203,11.3136464 L77.6952973,11.3148064 Z M61.5474682,5.28973427 C60.8324417,5.30423434 60.2645399,5.88713745 60.2792524,6.59184121 C60.2939649,7.29654497 60.8854066,7.85566795 61.5998446,7.84116787 C62.3048666,7.8272478 62.8686488,7.26058478 62.8686488,6.56574107 C62.8621753,5.85407728 62.2713222,5.28219423 61.5492337,5.28857426 L61.5468797,5.28857426 L61.5474682,5.28973427 Z M62.4578764,8.8213731 L60.614697,8.8213731 C60.5411346,8.8213731 60.4805191,8.87937341 60.4793421,8.9518738 L60.4793421,16.7065152 C60.4805191,16.7795956 60.5405461,16.8375959 60.614697,16.8370202 L62.4578764,16.8370202 C62.5320273,16.8375959 62.5926427,16.7795956 62.5938197,16.7065152 L62.5938197,8.9518738 C62.5926427,8.87937341 62.5314388,8.8207931 62.4578764,8.82195311 L62.4578764,8.8213731 Z M66.5555962,8.82891314 L66.5555962,8.58299183 C66.5555962,7.86030798 66.8433723,7.53898626 67.4866019,7.53898626 C67.8414669,7.54304628 68.192801,7.60510662 68.52648,7.72342725 C68.5670864,7.73676732 68.6118124,7.73038728 68.6465338,7.70544715 C68.6818438,7.68166702 68.7030298,7.64222681 68.7030298,7.59988659 L68.7030298,6.1017386 C68.7030298,6.04373829 68.6636003,5.99269802 68.6076929,5.97703793 C68.1109996,5.83087715 67.5954743,5.75953677 67.0770065,5.7647568 C65.3756554,5.7647568 64.4740746,6.68928173 64.4740746,8.43741106 L64.4740746,8.81383306 L63.5883833,8.81383306 C63.5148209,8.81383306 63.4553825,8.87125337 63.4542055,8.94375376 L63.4542055,10.4796019 C63.4553825,10.5521023 63.5148209,10.6101026 63.5883833,10.6095226 L64.4740746,10.6095226 L64.4740746,16.7065152 C64.4746631,16.7795956 64.5352785,16.8375959 64.6094294,16.8370159 L64.6100179,16.8370159 L66.4520204,16.8370159 C66.5255828,16.8381759 66.5856097,16.7807556 66.5867867,16.7082552 L66.5867867,16.7065152 L66.5867867,10.6083626 L68.3081468,10.6083626 L70.9446232,16.7047752 C70.6462541,17.3427786 70.351416,17.4721192 69.9500595,17.4721192 C69.5928405,17.4639992 69.243272,17.3682987 68.9325444,17.1937178 C68.900177,17.1780577 68.8619245,17.1745777 68.8266146,17.1838577 C68.7907161,17.1954578 68.7618797,17.2209779 68.7465787,17.2540381 L68.1215926,18.5764451 C68.0909906,18.6390855 68.1174731,18.7144859 68.179854,18.745226 C68.7818886,19.0735078 69.4598397,19.2411287 70.1477953,19.2312686 C71.5084054,19.2312686 72.2616843,18.6187854 72.9243344,16.9738966 L76.1216505,9.00523408 C76.1393055,8.96521387 76.1334205,8.91939363 76.1075265,8.88401344 C76.0828095,8.84805325 76.0422031,8.82659313 75.9974772,8.82601313 L74.0789698,8.82601313 C74.0212969,8.82543312 73.9700975,8.86081331 73.950677,8.9135936 L71.9803817,14.3296625 L69.8282402,8.91185359 C69.8076427,8.86139332 69.7582088,8.82833314 69.7028899,8.82775314 L66.5532422,8.82775314 L66.5555962,8.82891314 Z M59.488898,8.8213731 L57.4591643,8.8213731 L57.4591643,6.81746241 C57.4585758,6.74496203 57.3991374,6.68696172 57.325575,6.68753741 L55.4818071,6.68753741 C55.4082447,6.68753741 55.3476292,6.74496203 55.3470407,6.81746241 L55.3470407,8.81731308 L54.4613495,8.81731308 C54.3877871,8.81731308 54.3277602,8.87589339 54.3271717,8.94781378 L54.3271717,10.4755419 C54.3283487,10.5474623 54.3883756,10.6060426 54.4613495,10.6054626 L55.3470407,10.6054626 L55.3470407,14.5593437 C55.3470407,16.1560922 56.1709396,16.9663565 57.7981399,16.9663565 C58.4001745,16.9808566 58.9957357,16.8375959 59.5236195,16.5516543 C59.5659914,16.5296142 59.5924739,16.486114 59.5918854,16.4391337 L59.5918854,14.983906 C59.5912969,14.9386657 59.5671684,14.8974855 59.5283275,14.8737054 C59.488898,14.8499253 59.4394641,14.8481852 59.3970921,14.8684854 C59.0622361,15.0361063 58.6908931,15.1219467 58.3148421,15.1196267 C57.726343,15.1196267 57.4591643,14.8597853 57.4591643,14.2803622 L57.4591643,10.6060426 L59.488898,10.6060426 C59.5618719,10.6066226 59.6213103,10.5480423 59.6219387,10.4761219 L59.6219387,8.94839378 C59.6236643,8.87821341 59.5665799,8.81963309 59.494783,8.81847309 L59.490075,8.81847309 L59.488898,8.8213731 Z M49.768657,15.2101094 C48.4886712,15.2118472 47.4505587,14.1910417 47.4482047,12.930115 C47.4482047,12.8964748 47.4487932,12.8622547 47.4505587,12.8286145 C47.3811158,11.5990079 48.33625,10.5474623 49.5844567,10.4796019 C49.6350677,10.4767019 49.6868556,10.4755419 49.738055,10.4761219 C51.0215717,10.4703219 52.0661578,11.4905473 52.0726313,12.7555341 C52.0726313,12.7897543 52.0720428,12.8239745 52.0702773,12.8581946 C52.1350122,14.0912812 51.1734045,15.1422468 49.9228438,15.2060472 C49.8710558,15.2083672 49.8192679,15.2095272 49.7680685,15.2083672 L49.768657,15.2101094 Z M49.768657,8.65607222 C47.4264302,8.74887272 45.6050252,10.6953631 45.6991851,13.0026154 C45.793345,15.3104477 47.7683482,17.1061373 50.1099865,17.0127568 C52.3880668,16.9228563 54.1865204,15.0743865 54.1824079,12.8268745 C54.1447369,10.485982 52.1873886,8.61779202 49.8122059,8.65549222 C49.7974934,8.65549222 49.782781,8.65607222 49.768657,8.65607222 L49.768657,8.65607222 Z M42.6201574,12.8268745 C42.6201574,14.2188819 41.7303466,15.1938671 40.4538919,15.1938671 C39.1280032,15.0854065 38.1416786,13.9381604 38.2517279,12.6308334 C38.3488303,11.4737273 39.2804245,10.5561624 40.4538919,10.4598818 C41.6785587,10.483662 42.6507593,11.4806873 42.6272194,12.6870937 C42.6260424,12.734074 42.6236884,12.7804742 42.6201574,12.8262945 L42.6201574,12.8268745 Z M40.8811423,8.65607222 C39.8748087,8.64099214 38.917909,9.08469451 38.2888034,9.85841863 L38.2888034,8.94897378 C38.2882149,8.8770534 38.2287765,8.81847309 38.1552141,8.81847309 L38.1546256,8.81847309 L36.3102691,8.81847309 C36.2372952,8.81847309 36.1772683,8.8770534 36.1772683,8.94897378 L36.1772683,19.0555277 C36.1778568,19.1274481 36.2372952,19.1854527 36.3102691,19.1854527 L38.1546256,19.1854527 C38.2275995,19.1860284 38.2876264,19.1280281 38.2888034,19.0555277 L38.2888034,15.8655107 C38.940272,16.6026946 39.8895212,17.0173968 40.8811423,16.9970967 C42.8108311,16.9970967 44.7658254,15.5644891 44.7658254,12.8274545 C44.7658254,10.0904199 42.8149506,8.65665222 40.8811423,8.65665222 L40.8811423,8.65607222 Z M31.9312467,10.6141627 C29.8714995,10.1408801 29.5072185,9.80853837 29.5072185,9.11021464 C29.5072185,8.45075113 30.1510366,8.00820877 31.1085248,8.00820877 C32.1354559,8.04300895 33.122369,8.40493088 33.9221394,9.03945427 C33.9827548,9.0829545 34.0674987,9.07019443 34.1122247,9.01045411 L35.1173813,7.64396682 C35.1568107,7.58828653 35.1456292,7.51230612 35.0920758,7.4699659 C33.9698078,6.5901012 32.5715338,6.12319871 31.1385383,6.14929885 C28.9151883,6.14929885 27.3627275,7.43574571 27.3627275,9.27609553 C27.3627275,11.248106 28.7027401,11.9487498 31.0173074,12.4881527 C32.9858372,12.926055 33.3189277,13.292617 33.3189277,13.9480204 C33.3189277,14.6741843 32.6474502,15.1265867 31.5646117,15.1265867 C30.3428874,15.1190467 29.170597,14.6521442 28.2866712,13.8204198 C28.2590118,13.7983796 28.2237018,13.7867796 28.1883919,13.7890996 C28.1524934,13.7914196 28.1189489,13.8076597 28.095409,13.8343398 L26.9678445,15.1277467 C26.9213531,15.181107 26.9266496,15.2623075 26.980203,15.3087077 C28.2331178,16.3985335 29.8485481,16.9959367 31.5198857,16.9873304 C33.9144889,16.9873304 35.4622622,15.7245699 35.4622622,13.7711195 C35.4675383,12.1227507 34.4429612,11.2092458 31.9365432,10.6211227 L31.9312467,10.6141627 Z M18.4681508,10.1925004 C14.6264281,7.98848866 8.28770341,7.7889676 4.61664549,8.86255332 C4.0328543,9.03829426 3.41375316,8.71929256 3.22661041,8.1462495 C3.05241466,7.57958648 3.37785471,6.98102329 3.95340691,6.80992237 C3.9587034,6.80818237 3.96399989,6.80644236 3.96988489,6.80470235 C8.18118505,5.57161577 15.1825599,5.81057704 19.6068967,8.34287055 C20.1241875,8.63171209 20.3060338,9.27957555 20.0129612,9.78939827 C20.0076647,9.79867832 20.0023682,9.80795837 19.9970717,9.81665841 C19.6751626,10.3311212 18.9954461,10.498162 18.4669738,10.1930804 L18.4681508,10.1925004 Z M18.343389,13.4521178 C18.0685599,13.8755201 17.5018351,14.0066008 17.0651688,13.7479194 C13.8596137,11.8484092 8.97507046,11.2979863 5.1839587,12.4081122 C4.69668138,12.553113 4.18115609,12.2874716 4.02402681,11.810709 C3.87925601,11.3374265 4.15114263,10.8380439 4.63194647,10.6959431 C4.63547746,10.6947831 4.63959696,10.6936231 4.64371645,10.6924631 C8.97389346,9.42573633 14.353953,10.0387996 18.0373694,12.2201912 C18.4646198,12.4684326 18.6076251,13.0107354 18.356336,13.4318177 C18.351628,13.4387777 18.3475085,13.4463178 18.343389,13.4526978 L18.343389,13.4521178 Z M16.883911,16.5841345 C16.6649893,16.9240163 16.2112564,17.0289969 15.8616879,16.8219358 C13.0616088,15.172407 9.53826418,14.799465 5.38581392,15.7135499 C4.98975397,15.8034503 4.59369402,15.5627491 4.49718016,15.173567 C4.40831678,14.7884449 4.65372094,14.4050629 5.0450729,14.3174824 C5.04860389,14.3169024 5.05213489,14.3163224 5.05566588,14.3151624 C9.59770259,13.3146571 13.4929787,13.7455994 16.6367413,15.5975492 C16.9792479,15.7947503 17.0945937,16.2285926 16.894504,16.5661544 C16.890973,16.5725344 16.887442,16.5783345 16.883911,16.5841345 L16.883911,16.5841345 Z M11.4161651,0.000686054973 C4.9726875,0.138726791 -0.137250928,5.39877485 0.00281187818,11.7492287 C0.142874684,18.0991026 5.47997379,23.1352695 11.9228629,22.9972287 C18.2680611,22.860928 23.3391586,17.7534207 23.3385701,11.4986674 C23.2673617,5.07919314 17.9296741,-0.0683343132 11.4161651,0.000686054973 L11.4161651,0.000686054973 Z" id="Spotify"></path>
            </g>
        </g>
    </g>
</svg>